<?xml version="1.0" standalone="no"?>
<!DOCTYPE svg PUBLIC "-//W3C//DTD SVG 20010904//EN"
 "http://www.w3.org/TR/2001/REC-SVG-20010904/DTD/svg10.dtd">
<svg version="1.0" xmlns="http://www.w3.org/2000/svg"
 width="526.000000pt" height="526.000000pt" viewBox="0 0 526.000000 526.000000"
 preserveAspectRatio="xMidYMid meet">
<metadata>
Created by potrace 1.11, written by Peter Selinger 2001-2013
</metadata>
<g transform="translate(0.000000,526.000000) scale(0.100000,-0.100000)"
fill="#000000" stroke="none">
<path d="M705 5253 c-45 -9 -113 -39 -161 -69 -163 -102 -248 -285 -220 -476
55 -387 534 -546 814 -270 304 299 88 822 -338 819 -41 0 -84 -2 -95 -4z m187
-102 c106 -26 207 -108 253 -205 74 -157 45 -319 -79 -441 -192 -187 -505
-129 -617 115 -47 103 -47 205 -1 315 21 50 26 57 85 117 92 95 227 132 359
99z"/>
<path d="M3430 5201 c-78 -25 -143 -79 -183 -156 -21 -38 -22 -55 -24 -304 -1
-145 -4 -265 -6 -267 -2 -3 -75 65 -161 151 -137 136 -155 158 -146 175 19 36
-3 100 -43 122 -68 37 -94 23 -251 -133 -76 -77 -142 -139 -147 -139 -4 0 -10
4 -14 9 -5 10 -105 45 -160 57 -64 14 -200 10 -270 -7 -163 -42 -202 -71 -542
-409 l-282 -282 -33 25 c-73 54 -111 60 -351 60 -122 0 -242 -3 -265 -6 -75
-10 -162 -73 -199 -142 -34 -64 -38 -117 -37 -469 0 -316 -1 -351 -16 -366
-142 -142 -208 -369 -165 -567 20 -96 81 -222 138 -286 l42 -47 1 -923 c1
-1050 -4 -986 84 -1076 81 -83 109 -89 410 -87 243 1 257 3 303 24 57 27 110
79 139 136 16 31 22 65 25 136 3 52 4 106 3 120 -1 14 -1 32 -1 40 1 8 1 26 0
40 0 14 0 32 0 40 1 8 1 26 0 40 0 14 0 32 0 40 1 8 1 26 0 40 0 14 0 32 0 40
1 8 1 26 0 40 0 14 0 32 0 40 1 8 1 26 0 40 0 14 0 32 0 40 1 8 1 26 0 40 0
14 0 31 0 38 1 6 1 20 1 30 0 9 0 26 0 37 1 11 1 27 1 35 -2 59 -2 73 3 77 3
3 54 -43 114 -104 98 -99 107 -111 96 -129 -46 -69 1 -164 81 -164 17 0 40 7
51 15 10 8 23 15 27 15 5 0 71 -62 147 -138 120 -119 137 -140 125 -153 -28
-29 -22 -90 13 -129 31 -36 71 -43 118 -24 l32 14 136 -136 c131 -130 136
-136 121 -157 -55 -78 36 -185 127 -149 23 9 283 267 320 317 39 54 66 117 74
174 6 47 12 54 185 226 98 98 179 176 180 174 0 -2 2 -11 4 -19 66 -333 314
-609 635 -708 109 -33 151 -36 545 -37 l380 0 47 24 c61 31 110 80 139 139 23
46 24 53 24 322 0 266 -1 276 -23 317 -21 40 -55 80 -98 113 -39 31 -99 44
-215 46 -175 4 -261 34 -355 128 -96 97 -125 180 -127 367 l-1 127 32 30 c35
33 42 78 21 126 -11 23 -4 32 119 155 l130 131 34 -14 c93 -38 178 50 135 140
-17 34 -17 36 8 77 56 97 85 217 81 337 -3 78 -30 208 -46 220 -4 3 -10 15
-14 27 -17 53 -92 141 -287 337 -115 116 -209 217 -210 225 0 9 -1 347 -2 751
-2 731 -2 735 -24 782 -26 58 -84 115 -143 142 -42 19 -65 21 -305 23 -143 1
-271 -2 -285 -6z m547 -106 c44 -17 81 -56 102 -110 8 -22 11 -208 9 -708 l-3
-678 -379 378 c-226 225 -381 388 -385 403 -4 14 -6 152 -5 307 1 270 2 285
23 325 25 50 77 89 128 97 20 3 133 5 251 4 173 -1 224 -5 259 -18z m-1087
-338 c0 -2 -10 -12 -22 -23 l-23 -19 19 23 c18 21 26 27 26 19z m-1838 -759
c10 -2 32 -14 49 -27 l31 -23 -355 -354 c-196 -195 -357 -354 -360 -354 -2 0
-3 143 -3 318 1 315 1 317 25 355 23 38 80 81 117 89 24 5 473 2 496 -4z
m-491 -2022 c93 -93 97 -100 84 -120 -48 -68 19 -167 103 -151 20 4 42 11 48
16 8 6 55 -34 147 -128 l136 -137 -15 -34 c-32 -77 17 -142 111 -147 12 0 14
-856 2 -905 -13 -49 -51 -97 -99 -121 -37 -19 -57 -20 -278 -20 -191 0 -244 3
-271 15 -45 20 -73 45 -95 87 -18 32 -19 76 -19 911 l-1 878 24 -23 c14 -12
69 -67 123 -121z m3529 -370 c0 -165 10 -221 56 -315 62 -125 178 -223 324
-271 19 -7 94 -14 165 -16 159 -5 204 -23 248 -95 l28 -46 0 -239 c1 -264 -3
-287 -60 -343 -17 -17 -49 -35 -70 -41 -25 -6 -171 -10 -388 -10 -380 1 -420
5 -561 61 -130 51 -249 141 -345 260 -20 25 -37 51 -37 58 0 6 -4 11 -9 11 -5
0 -11 8 -14 18 -3 9 -12 28 -21 42 -25 44 -59 134 -63 172 -4 29 -1 37 15 42
49 16 72 89 44 138 l-16 27 132 132 133 132 32 -15 c84 -39 182 49 141 127 -8
15 -14 32 -14 37 0 15 253 267 268 268 9 0 12 -33 12 -134z"/>
<path d="M4575 4094 c-66 -17 -89 -30 -134 -73 -38 -37 -64 -82 -78 -135 -3
-12 -6 -93 -6 -181 -1 -152 1 -163 25 -216 23 -50 95 -133 115 -134 5 -1 19
-7 33 -15 20 -12 66 -15 215 -15 179 0 193 1 235 23 60 31 121 98 142 154 23
63 25 331 3 404 -27 92 -116 172 -210 190 -61 11 -296 10 -340 -2z m376 -111
c48 -31 71 -61 86 -113 3 -8 5 -80 6 -160 2 -120 -1 -151 -15 -180 -26 -52
-39 -66 -87 -90 -38 -21 -57 -23 -189 -23 -177 0 -222 14 -269 84 -28 43 -28
43 -28 213 0 166 1 172 25 208 50 74 90 86 286 84 135 -2 154 -4 185 -23z"/>
</g>
</svg>
