<svg display="none" xmlns="http://www.w3.org/2000/svg">
<!-- pin -->
        <symbol id="pin" viewBox="0 0 53.9 73.4">
            <g>
                <path xmlns="http://www.w3.org/2000/svg" class="st0" d="M27,0C12.1,0,0,12.1,0,27c0,3.8,0.8,7.5,2.4,11C9.1,52.8,22,68.5,25.8,72.9c0.3,0.3,0.7,0.5,1.1,0.5  c0.4,0,0.9-0.2,1.1-0.5c3.8-4.4,16.7-20,23.5-34.8c1.6-3.5,2.4-7.2,2.3-11C54,12.2,41.9,0,27,0z M27,41.1c-7.7,0-14-6.3-14-14  c0-7.7,6.3-14,14-14c7.7,0,14,6.2,14,13.9C41,34.7,34.8,41,27,41.1C27,41.1,27,41.1,27,41.1L27,41.1z"/>
            </g>
        </symbol>
<!-- / pin -->

<!-- calendar -->
        <symbol id="calendar" viewBox="0 0 73.39 73.4">
            <g>
                <path xmlns="http://www.w3.org/2000/svg" class="cls-1" d="M36.67,0A36.67,36.67,0,1,0,73.34,36.71,36.78,36.78,0,0,0,36.67,0Zm0,66A29.34,29.34,0,1,1,66,36.71,29.42,29.42,0,0,1,36.67,66Z"/>
                <polygon xmlns="http://www.w3.org/2000/svg" class="cls-1" points="38.5 18.37 33 18.37 33 40.37 52.07 52.11 55 47.34 38.5 37.44 38.5 18.37"/>
            </g>
        </symbol>

<!-- / calendar -->

<!-- telephone -->
    <symbol id="telephone" viewBox="0 0 73.5 73.4">
            <g>
                <path xmlns="http://www.w3.org/2000/svg" class="st0" d="M55.8,48.6c-1.9-2.1-5.1-2.4-7.2-0.5c-0.2,0.2-0.4,0.3-0.5,0.5c-1.8,1.8-3.6,3.6-5.4,5.4  c-0.3,0.5-1,0.6-1.5,0.3c0,0,0,0,0,0c-1.2-0.6-2.4-1.2-3.6-1.9C32.4,49,27.8,44.9,24,40c-2-2.4-3.6-5-4.9-7.8  c-0.3-0.5-0.2-1.1,0.3-1.4c1.8-1.8,3.6-3.6,5.4-5.4c2.5-2.5,2.5-5.4,0-8l-4.3-4.3c-1.5-1.5-2.9-3-4.4-4.4C14.2,6.6,11,6.4,8.8,8.3  C8.6,8.4,8.5,8.6,8.3,8.7c-1.8,1.8-3.6,3.6-5.4,5.4c-1.7,1.6-2.7,3.7-2.8,6c-0.2,3.7,0.5,7.5,1.9,11c2.8,7.2,6.7,13.8,11.8,19.6  c6.6,7.9,14.8,14.3,24.1,18.8c4.1,2.2,8.7,3.5,13.3,3.9c3.1,0.4,6.3-0.8,8.4-3.2c1.6-1.7,3.3-3.3,5-5c2.4-2.5,2.5-5.5,0-7.9  C61.7,54.4,58.7,51.5,55.8,48.6z"/>
                <path xmlns="http://www.w3.org/2000/svg" class="st0" d="M37.1,14.7l-0.8,5.7c8.4,1.2,15.1,7.7,16.6,16l5.6-1C56.7,24.6,48,16.2,37.1,14.7L37.1,14.7z"/>
                <path xmlns="http://www.w3.org/2000/svg" class="st0" d="M37.9,0l-0.8,5.7c15.6,2.2,28,14.2,30.7,29.7l5.6-1C70.3,16.4,56,2.5,37.9,0z"/>
            </g>
        </symbol>
<!-- / telephone -->

</svg>